<svg width="181" height="146" xmlns="http://www.w3.org/2000/svg" xmlns:xlink="http://www.w3.org/1999/xlink"><defs><path id="a" d="M0 .384h147.645V80.3H0z"/></defs><g fill="none" fill-rule="evenodd"><g transform="translate(32.308 24.974)"><mask id="b" fill="#fff"><use xlink:href="#a"/></mask><path d="M72.5.384H0L14.688 80.3h112.035a9.845 9.845 0 0 0 9.685-8.06l11.073-60.243c1.11-6.043-3.535-11.613-9.686-11.613H72.5z" fill-opacity=".16" fill="#000" mask="url(#b)"/></g><path d="M23.846 0a4.613 4.613 0 0 1 4.54 3.78l18.46 100.663 2.358 11.589h109.258a4.614 4.614 0 0 1 4.615 4.61 4.614 4.614 0 0 1-4.615 4.61h-7.755a11.868 11.868 0 0 1 3.524 8.453c0 6.579-5.338 11.91-11.923 11.91-6.586 0-11.923-5.331-11.923-11.91 0-3.305 1.347-6.296 3.523-8.453H64.553a11.868 11.868 0 0 1 3.524 8.453c0 6.579-5.338 11.91-11.923 11.91-6.586 0-11.923-5.331-11.923-11.91 0-3.305 1.347-6.296 3.523-8.453h-2.37a4.614 4.614 0 0 1-4.533-3.747l-3.077-15.368L19.999 9.22H4.615A4.614 4.614 0 0 1 0 4.611 4.614 4.614 0 0 1 4.615 0h19.231z" fill-opacity=".25" fill="#000"/><path d="m98.418 56.361 4.29 4.616a1.203 1.203 0 0 0 1.763 0l4.29-4.616a1.204 1.204 0 0 1 1.732-.032l3.363 3.359c.469.468.469 1.23 0 1.699l-4.32 4.316a1.2 1.2 0 0 0 0 1.699l4.278 4.274a1.2 1.2 0 0 1-.041 1.739l-3.281 2.979a1.203 1.203 0 0 1-1.69-.072l-4.295-4.62a1.204 1.204 0 0 0-1.794.037L98.84 76.25a1.203 1.203 0 0 1-1.725.104l-3.753-3.436a1.202 1.202 0 0 1-.07-1.701l3.955-4.28a1.2 1.2 0 0 0-.033-1.665l-3.89-3.886a1.201 1.201 0 0 1 0-1.7l3.361-3.358a1.204 1.204 0 0 1 1.732.032" fill="#FFF"/></g></svg>