<?xml version="1.0" encoding="utf-8"?>
<!DOCTYPE svg PUBLIC "-//W3C//DTD SVG 20010904//EN" "http://www.w3.org/TR/2001/REC-SVG-20010904/DTD/svg10.dtd">
<svg version="1.0" xmlns="http://www.w3.org/2000/svg" width="292pt" height="104pt" viewBox="0 0 292 104" style="" preserveAspectRatio="xMidYMid meet">
<g fill="#9CFF1EFF" stroke="#9CFF1EFF">
<path d="M 281.000 19.618 C 279.581 20.425 277.198 20.815 275.491 20.520 C 273.157 20.117 272.182 20.479 271.148 22.134 C 270.037 23.914 270.038 24.409 271.158 25.119 C 271.896 25.587 273.261 25.976 274.191 25.985 C 277.774 26.017 276.886 28.340 269.884 37.263 C 250.686 61.723 234.365 79.315 222.751 88.067 C 210.772 97.093 204.949 98.949 201.000 95.000 C 197.061 91.061 199.521 76.773 206.512 62.976 C 209.522 57.036 209.594 56.000 207.000 56.000 C 205.549 56.000 205.000 56.667 205.000 58.430 C 205.000 60.168 204.375 60.952 202.807 61.180 C 201.176 61.418 199.989 63.038 198.177 67.500 C 191.505 83.931 191.251 93.109 197.285 99.735 C 201.860 104.759 211.330 103.246 222.414 95.720 C 234.181 87.730 258.035 62.258 277.385 37.021 C 282.575 30.252 282.180 30.317 285.714 35.663 C 286.871 37.414 287.022 37.391 288.937 35.173 C 290.805 33.009 290.834 32.677 289.361 30.427 C 288.245 28.725 287.976 26.943 288.451 24.411 C 288.982 21.580 288.739 20.519 287.313 19.438 C 285.105 17.764 284.214 17.790 281.000 19.618 "/></g>
<g fill="#9CFF1EFF" stroke="#9CFF1EFF">
<path d="M 201.763 3.461 C 196.781 5.361 184.805 13.135 178.025 18.869 C 169.526 26.057 159.000 36.149 159.000 37.110 C 159.000 38.554 162.299 41.933 163.178 41.390 C 163.630 41.110 164.000 40.009 164.000 38.941 C 164.000 37.744 164.685 37.000 165.788 37.000 C 166.771 37.000 169.808 34.707 172.538 31.905 C 179.852 24.394 192.882 14.454 200.137 10.849 C 211.011 5.446 219.000 7.013 219.000 14.550 C 219.000 18.072 215.634 29.836 213.363 34.250 C 211.955 36.987 211.964 37.000 215.336 37.000 C 218.512 37.000 218.851 36.664 220.794 31.588 C 225.910 18.218 225.800 9.979 220.439 4.942 C 217.334 2.025 207.559 1.250 201.763 3.461 "/></g>
<g fill="#FFFFFFFF" stroke="#FFFFFFFF">
<path d="M 135.000 49.000 L 135.000 61.000 138.934 61.000 C 142.481 61.000 142.898 60.730 143.184 58.250 C 143.432 56.088 144.090 55.432 146.258 55.183 C 148.454 54.930 149.371 55.489 150.758 57.926 C 152.323 60.677 152.991 60.988 157.333 60.994 C 159.992 60.997 162.002 60.663 161.801 60.250 C 161.600 59.838 160.816 58.264 160.059 56.754 C 158.854 54.350 158.889 53.780 160.341 52.175 C 162.190 50.132 162.551 43.897 160.988 40.978 C 159.562 38.313 153.916 37.012 143.750 37.006 L 135.000 37.000 135.000 49.000 M 153.814 46.250 C 154.099 47.747 153.341 48.000 148.573 48.000 C 144.596 48.000 143.000 47.618 143.000 46.667 C 143.000 44.412 144.247 43.896 148.954 44.204 C 152.327 44.424 153.567 44.946 153.814 46.250 "/></g>
<g fill="#FFFFFFFF" stroke="#FFFFFFFF">
<path d="M 75.000 49.000 L 75.000 61.000 87.500 61.000 L 100.000 61.000 100.000 58.040 L 100.000 55.081 91.830 54.790 C 86.401 54.597 83.522 54.081 83.247 53.250 C 82.938 52.315 84.996 52.000 91.417 52.000 L 100.000 52.000 100.000 49.000 L 100.000 46.000 91.500 46.000 C 86.500 46.000 83.000 45.588 83.000 45.000 C 83.000 44.412 86.500 44.000 91.500 44.000 L 100.000 44.000 100.000 40.500 L 100.000 37.000 87.500 37.000 L 75.000 37.000 75.000 49.000 "/></g>
<g fill="#FFFFFFFF" stroke="#FFFFFFFF">
<path d="M 196.000 48.889 L 196.000 61.000 200.000 61.000 C 203.778 61.000 204.000 60.833 204.000 58.000 C 204.000 55.003 204.005 55.000 209.953 55.000 C 216.985 55.000 220.369 53.680 221.890 50.343 C 223.621 46.543 223.212 43.358 220.603 40.325 C 218.295 37.641 217.799 37.525 207.103 37.159 L 196.000 36.779 196.000 48.889 M 214.500 46.000 C 214.500 47.104 213.116 47.580 209.250 47.802 C 204.484 48.077 204.000 47.911 204.000 46.000 C 204.000 44.089 204.484 43.923 209.250 44.198 C 213.116 44.420 214.500 44.896 214.500 46.000 "/></g>
<g fill="#FFFFFFFF" stroke="#FFFFFFFF">
<path d="M 52.445 38.009 C 47.476 39.550 44.832 43.130 44.752 48.428 C 44.714 50.964 45.269 54.134 45.986 55.474 C 48.693 60.531 57.592 62.451 64.654 59.500 C 69.057 57.660 69.000 57.660 69.000 59.500 C 69.000 60.433 69.944 61.000 71.500 61.000 C 73.910 61.000 74.000 60.767 74.000 54.500 L 74.000 48.000 66.500 48.000 C 59.667 48.000 59.000 48.178 59.000 50.000 C 59.000 51.568 59.667 52.000 62.083 52.000 C 66.825 52.000 65.099 54.445 60.098 54.811 C 54.906 55.192 53.000 53.765 53.000 49.500 C 53.000 45.034 54.990 43.639 60.231 44.432 C 62.579 44.787 66.639 45.329 69.254 45.636 C 73.890 46.180 73.986 46.136 73.150 43.878 C 71.718 40.006 67.818 37.872 61.403 37.450 C 58.156 37.236 54.125 37.488 52.445 38.009 "/></g>
<g fill="#FFFFFFFF" stroke="#FFFFFFFF">
<path d="M 106.696 48.286 C 104.113 54.494 102.000 59.894 102.000 60.286 C 102.000 60.679 103.976 61.000 106.392 61.000 C 110.242 61.000 110.861 60.692 111.411 58.500 C 111.984 56.215 112.508 56.000 117.500 56.000 C 122.492 56.000 123.016 56.215 123.589 58.500 C 124.149 60.732 124.731 61.000 129.010 61.000 L 133.804 61.000 128.756 49.000 L 123.709 37.000 117.551 37.000 L 111.392 37.000 106.696 48.286 M 119.965 49.250 C 119.989 50.459 119.228 51.000 117.500 51.000 C 114.665 51.000 114.552 50.584 116.144 46.017 L 117.288 42.735 118.609 45.118 C 119.335 46.428 119.945 48.288 119.965 49.250 "/></g>
<g fill="#FFFFFFFF" stroke="#FFFFFFFF">
<path d="M 164.002 44.250 C 164.004 57.321 168.629 61.763 181.123 60.694 C 191.193 59.832 193.983 56.038 193.994 43.193 L 194.000 36.885 189.750 37.193 L 185.500 37.500 185.200 44.458 C 184.834 52.928 183.942 54.193 178.610 53.800 C 173.547 53.426 172.036 50.893 172.015 42.750 L 172.000 37.000 168.000 37.000 L 164.000 37.000 164.002 44.250 "/></g>
<g fill="#9CFF1EFF" stroke="#9CFF1EFF">
<path d="M 10.000 37.532 C 10.000 37.825 10.675 39.680 11.500 41.654 C 12.325 43.629 13.000 45.414 13.000 45.622 C 13.000 45.830 10.525 46.000 7.500 46.000 C 2.056 46.000 2.000 46.030 2.000 49.000 C 2.000 51.970 2.056 52.000 7.500 52.000 C 10.525 52.000 13.000 52.170 13.000 52.378 C 13.000 52.586 12.325 54.371 11.500 56.346 C 9.517 61.092 9.477 61.000 13.500 61.000 C 15.740 61.000 17.000 60.523 17.000 59.674 C 17.000 57.945 20.888 54.415 23.750 53.548 C 25.506 53.015 26.000 52.122 26.000 49.480 C 26.000 46.565 25.491 45.852 22.342 44.358 C 20.141 43.314 18.261 41.502 17.623 39.811 C 16.756 37.516 15.959 37.000 13.281 37.000 C 11.476 37.000 10.000 37.239 10.000 37.532 "/></g>
<g fill="#9CFF1EFF" stroke="#9CFF1EFF">
<path d="M 57.000 76.000 L 57.000 81.000 62.000 81.000 C 65.685 81.000 67.000 80.621 67.000 79.560 C 67.000 78.633 65.665 77.981 63.250 77.728 L 59.500 77.336 63.250 77.168 C 68.025 76.954 68.197 75.000 63.441 75.000 C 61.323 75.000 60.132 74.595 60.500 74.000 C 60.840 73.450 62.441 73.000 64.059 73.000 C 65.677 73.000 67.000 72.550 67.000 72.000 C 67.000 71.450 64.750 71.000 62.000 71.000 L 57.000 71.000 57.000 76.000 "/></g>
<g fill="#9CFF1EFF" stroke="#9CFF1EFF">
<path d="M 82.000 76.000 C 82.000 79.778 82.367 81.000 83.500 81.000 C 84.333 81.000 85.000 80.111 85.000 79.000 C 85.000 77.444 85.667 77.000 88.000 77.000 C 90.333 77.000 91.000 77.444 91.000 79.000 C 91.000 80.111 91.667 81.000 92.500 81.000 C 93.633 81.000 94.000 79.778 94.000 76.000 C 94.000 72.222 93.633 71.000 92.500 71.000 C 91.667 71.000 91.000 71.889 91.000 73.000 C 91.000 74.556 90.333 75.000 88.000 75.000 C 85.667 75.000 85.000 74.556 85.000 73.000 C 85.000 71.889 84.333 71.000 83.500 71.000 C 82.367 71.000 82.000 72.222 82.000 76.000 "/></g>
<g fill="#9CFF1EFF" stroke="#9CFF1EFF">
<path d="M 69.571 72.571 C 67.465 74.678 67.592 76.592 70.000 79.000 C 72.205 81.205 75.101 81.551 78.066 79.965 C 81.261 78.255 80.262 77.110 75.750 77.311 C 72.555 77.453 71.500 77.128 71.500 76.000 C 71.500 74.872 72.555 74.547 75.750 74.689 C 80.262 74.890 81.261 73.745 78.066 72.035 C 75.244 70.525 71.374 70.769 69.571 72.571 "/></g>
<g fill="#9CFF1EFF" stroke="#9CFF1EFF">
<path d="M 44.000 72.500 C 44.000 73.433 44.944 74.000 46.500 74.000 C 48.690 74.000 49.000 74.433 49.000 77.500 C 49.000 79.944 49.452 81.000 50.500 81.000 C 51.548 81.000 52.000 79.944 52.000 77.500 C 52.000 74.667 52.381 74.000 54.000 74.000 C 55.111 74.000 56.000 73.333 56.000 72.500 C 56.000 71.333 54.667 71.000 50.000 71.000 C 45.333 71.000 44.000 71.333 44.000 72.500 "/></g>
<g fill="#9CFF1EFF" stroke="#9CFF1EFF">
<path d="M 207.638 46.500 C 207.252 47.507 207.683 48.000 208.950 48.000 C 211.534 48.000 214.000 46.971 214.000 45.893 C 214.000 44.356 208.251 44.904 207.638 46.500 "/></g>
<g fill="#C9FF83FF" stroke="#C9FF83FF">
<path d="M 204.384 56.442 C 204.080 57.234 204.042 58.697 204.299 59.692 C 204.613 60.903 204.806 60.615 204.884 58.816 C 204.976 56.694 205.575 56.046 207.750 55.716 L 210.500 55.300 207.719 55.150 C 206.106 55.063 204.705 55.606 204.384 56.442 "/></g>
<g fill="#DDFFB2FF" stroke="#DDFFB2FF">
<path d="M 211.207 44.951 C 213.247 45.347 214.682 45.295 214.398 44.836 C 214.114 44.376 212.446 44.052 210.691 44.115 L 207.500 44.230 211.207 44.951 "/></g>
</svg>
